<svg width="23" height="23" viewBox="0 0 23 23" fill="none" xmlns="http://www.w3.org/2000/svg">
<path fill-rule="evenodd" clip-rule="evenodd" d="M14.9122 2.79523C15.5042 2.79523 16.0953 2.87874 16.6573 3.06733C20.1205 4.19326 21.3684 7.99326 20.326 11.3147C19.7349 13.0121 18.7685 14.5612 17.5027 15.8269C15.6909 17.5815 13.7027 19.139 11.5625 20.4807L11.328 20.6224L11.084 20.4713C8.93631 19.139 6.93685 17.5815 5.10816 15.8175C3.85088 14.5518 2.88352 13.0121 2.28303 11.3147C1.22278 7.99326 2.47068 4.19326 5.97137 3.04763C6.24347 2.9538 6.52401 2.88812 6.80549 2.85153H6.91809C7.18174 2.81306 7.44352 2.79523 7.70623 2.79523H7.80944C8.40056 2.81306 8.9729 2.91627 9.52742 3.10486H9.58278C9.62031 3.12269 9.64846 3.14239 9.66722 3.16022C9.87458 3.22684 10.0707 3.3019 10.2583 3.40511L10.6149 3.56461C10.701 3.61056 10.7977 3.68077 10.8813 3.74145C10.9343 3.7799 10.9819 3.81451 11.0183 3.83671C11.0336 3.84575 11.0492 3.85483 11.0649 3.86399C11.1453 3.91095 11.2292 3.95987 11.2998 4.01405C12.3422 3.21745 13.608 2.78585 14.9122 2.79523ZM17.408 9.55079C17.7927 9.54047 18.121 9.23177 18.1492 8.83676V8.72511C18.1773 7.41059 17.3807 6.21992 16.1694 5.76017C15.7848 5.62787 15.3625 5.83523 15.2218 6.22931C15.0904 6.62338 15.2968 7.05498 15.6909 7.19479C16.2924 7.41997 16.6949 8.01202 16.6949 8.66787V8.69696C16.677 8.91182 16.7418 9.11918 16.8731 9.27869C17.0045 9.43819 17.2015 9.53108 17.408 9.55079Z" fill="#FC0005"/>
</svg>
